# xmcd
#
# Track frame offsets: 
#        150
#        13462
#        25590
#        38437
#        51535
#        64462
#        77152
#        91177
#        104030
#        113935
#        124750
#        136245
#        146532
#        158217
#        169162
#        182062
#        194627
#        204535
#        215540
#        228515
#        243920
#        257710
#        270475
#        283707
#        310135
#
# Disc length: 4494 seconds
#
# Revision: 5
# Processed by: cddbd v1.5.2PL0 Copyright (c) Steve Scherf et al.
# Submitted via: ExactAudioCopy v1.3
#
DISCID=75118c19
DTITLE=Howlin' Wolf - The Genuine Article
DYEAR=1994
DGENRE=Blues
TTITLE0=Moanin' At Midnight
TTITLE1=How Many More Years
TTITLE2=I'm The Wolf
TTITLE3=Baby How Long
TTITLE4=Evil (Is Going On)
TTITLE5=Forty Four
TTITLE6=Smokestack Lightin'
TTITLE7=I Asked For Water
TTITLE8=The Natchez Burnin'
TTITLE9=Who's Been Talkin'
TTITLE10=Sittin' On Top of The World
TTITLE11=I've been Abused
TTITLE12=Howlin' For My Baby
TTITLE13=Wang Dang doole
TTITLE14=Back Door Man
TTITLE15=Spoonful
TTITLE16=Down In the Bottom
TTITLE17=The Red Rooster
TTITLE18=I Ain't Supersticious
TTITLE19=Goin' Down Slow
TTITLE20=300 Pounds of Joy
TTITLE21=Killing Floor
TTITLE22=Dust My Broom
TTITLE23=Ain't Goin' Down That Dirt Road
TTITLE24=The Red Rooster
EXTD=YEAR: 1994
EXTT0=
EXTT1=
EXTT2=
EXTT3=
EXTT4=
EXTT5=
EXTT6=
EXTT7=
EXTT8=
EXTT9=
EXTT10=
EXTT11=
EXTT12=
EXTT13=
EXTT14=
EXTT15=
EXTT16=
EXTT17=
EXTT18=
EXTT19=
EXTT20=
EXTT21=
EXTT22=
EXTT23=
EXTT24=
PLAYORDER=
